<?xml version="1.0" encoding="utf-8"?>
<!-- Generator: Adobe Illustrator 17.0.0, SVG Export Plug-In . SVG Version: 6.00 Build 0)  -->
<!DOCTYPE svg PUBLIC "-//W3C//DTD SVG 1.1//EN" "http://www.w3.org/Graphics/SVG/1.1/DTD/svg11.dtd">
<svg version="1.1" id="Layer_1" xmlns="http://www.w3.org/2000/svg" xmlns:xlink="http://www.w3.org/1999/xlink" x="0px" y="0px"
	 width="55px" height="51px" viewBox="0 0 55 51" enable-background="new 0 0 55 51" xml:space="preserve">
<g>
	<g>
		<path fill="#436FAF" d="M50.368,25.013c0,0.846-0.048,1.699-0.142,2.535c-0.164,1.452-1.939,2.071-2.971,1.039l-4.809-4.809
			c-0.682-0.682-0.682-1.788,0-2.47c0.682-0.682,1.788-0.682,2.47,0l1.871,1.871c-0.9-9.385-8.807-17.03-18.776-17.03
			c-10.485,0-18.864,8.507-18.864,18.864c0,10.427,8.438,18.864,18.864,18.864c6.912,0,13.263-3.774,16.575-9.85
			c0.462-0.847,1.522-1.159,2.369-0.698c0.847,0.462,1.159,1.523,0.698,2.369c-3.924,7.2-11.45,11.672-19.642,11.672
			c-12.358,0-22.357-10.001-22.357-22.357c0-12.345,10.011-22.357,22.357-22.357C40.369,2.656,50.368,12.657,50.368,25.013z
			 M28.011,9.643c-0.965,0-1.747,0.782-1.747,1.747v13.624c0,0.463,0.184,0.908,0.512,1.235l7.225,7.225
			c0.682,0.682,1.788,0.682,2.47,0c0.682-0.682,0.682-1.788,0-2.47l-6.714-6.713v-12.9C29.758,10.425,28.976,9.643,28.011,9.643
			L28.011,9.643z"/>
	</g>
</g>
</svg>
