<?xml version="1.0" encoding="utf-8"?>
<!-- Generator: Adobe Illustrator 17.0.0, SVG Export Plug-In . SVG Version: 6.00 Build 0)  -->
<!DOCTYPE svg PUBLIC "-//W3C//DTD SVG 1.1//EN" "http://www.w3.org/Graphics/SVG/1.1/DTD/svg11.dtd">
<svg version="1.1" id="Layer_1" xmlns="http://www.w3.org/2000/svg" xmlns:xlink="http://www.w3.org/1999/xlink" x="0px" y="0px"
	 width="100px" height="100px" viewBox="0 0 100 100" enable-background="new 0 0 100 100" xml:space="preserve">
<g>
	<g>
		<g>
			<g>
				<path fill="#F8F2F2" d="M80.243,24.711v30.27c0,1.68-1.362,3.042-3.042,3.042H22.85c-1.68,0-3.042-1.362-3.042-3.042v-30.27
					L50.025,6.942L80.243,24.711z"/>
				<path fill="#E2DEEF" d="M50.025,6.942v51.081h27.175c1.68,0,3.042-1.362,3.042-3.042v-30.27L50.025,6.942z"/>
			</g>
			<g>
				<path fill="#C95357" d="M86.189,30.006c-0.457,0-0.92-0.116-1.345-0.36L49.988,9.634L15.207,29.603
					c-1.297,0.745-2.951,0.297-3.695-1c-0.744-1.296-0.297-2.951,1-3.695L48.64,4.166c0.835-0.479,1.861-0.479,2.695,0
					l36.204,20.786c1.296,0.744,1.744,2.399,1,3.695C88.038,29.518,87.127,30.006,86.189,30.006L86.189,30.006z"/>
				<path fill="#A2375D" d="M87.539,24.952L51.335,4.166c-0.406-0.233-0.857-0.352-1.31-0.358v5.848l34.819,19.991
					c0.425,0.244,0.888,0.36,1.345,0.36c0.938,0,1.849-0.488,2.35-1.359C89.283,27.35,88.836,25.696,87.539,24.952z"/>
			</g>
			<g>
				<g>
					<circle fill="#AF8364" cx="41.689" cy="32.97" r="5.413"/>
					<path fill="#93C6EB" d="M50.025,58.023H33.33V46.741c0-4.616,3.742-8.359,8.359-8.359s8.359,3.742,8.336,8.359V58.023z"/>
				</g>
				<g>
					<ellipse fill="#7E4B3C" cx="58.367" cy="37.056" rx="5.412" ry="5.412"/>
					<path fill="#E28A60" d="M66.72,58.023H50.025v-7.216c-0.022-4.616,3.72-8.359,8.336-8.359c4.616,0,8.359,3.742,8.359,8.359
						V58.023z"/>
				</g>
				<g>
					<g>
						<path fill="#483349" d="M58.384,58.023H41.667v-1.258c0-4.616,3.742-8.359,8.359-8.359c4.616,0,8.359,3.742,8.359,8.359
							V58.023z"/>
						<path fill="#362237" d="M50.026,48.407v9.616h8.359v-1.258C58.384,52.149,54.642,48.407,50.026,48.407L50.026,48.407z"/>
					</g>
					<g>
						<circle fill="#F0DABB" cx="50.025" cy="42.809" r="5.413"/>
						<path fill="#FABBA8" d="M50.025,37.395v10.827c2.99,0,5.413-2.424,5.413-5.413C55.439,39.819,53.015,37.395,50.025,37.395z"/>
					</g>
				</g>
			</g>
		</g>
		<g>
			<g>
				<path fill="#F0DABB" d="M88.219,70.726l-22.198,10.56c0.08-0.168,0.152-0.342,0.215-0.521c1.04-2.917-0.484-6.121-3.404-7.155
					l-22.146-7.843c-4.215-1.493-8.854-1.251-12.896,0.672L3.832,76.781v19.412l22.664-10.109l27.196,9.412
					c3.144,1.088,6.592,0.896,9.6-0.534l29.73-14.143c2.793-1.328,3.982-4.665,2.656-7.452
					C94.351,70.58,91.012,69.397,88.219,70.726L88.219,70.726z"/>
				<path fill="#FABBA8" d="M95.677,73.367c-1.326-2.787-4.665-3.97-7.457-2.641l-22.198,10.56c0.08-0.168,0.152-0.342,0.215-0.521
					c1.04-2.917-0.484-6.121-3.404-7.155l-12.808-4.536v25.153l3.666,1.269c3.144,1.088,6.592,0.896,9.6-0.534l29.73-14.143
					C95.813,79.49,97.003,76.154,95.677,73.367L95.677,73.367z"/>
			</g>
			<g>
				<path fill="#FABBA8" d="M62.49,83.941c1.366-0.65,2.502-1.517,3.531-2.655c0.08-0.168,0.152-0.342,0.215-0.521
					c0.936-2.627-0.207-5.486-2.576-6.784l-0.538,1.508c-1.099,3.083-4.503,4.703-7.588,3.61l-9.96-3.527
					c-1.466-0.52-3.079,0.248-3.601,1.713c-0.522,1.465,0.243,3.074,1.71,3.594l9.96,3.528C56.65,85.472,59.812,85.215,62.49,83.941
					L62.49,83.941z"/>
				<path fill="#DD9080" d="M63.66,73.982l-0.538,1.508c-1.099,3.083-4.503,4.703-7.588,3.61l-5.509-1.951v5.976l3.618,1.282
					c3.007,1.065,6.169,0.808,8.847-0.466c1.366-0.65,2.502-1.517,3.531-2.655c0.08-0.168,0.152-0.342,0.215-0.521
					C67.173,78.138,66.029,75.28,63.66,73.982L63.66,73.982z"/>
			</g>
		</g>
	</g>
</g>
</svg>
