<?xml version="1.0" encoding="utf-8"?>
<!-- Generator: Adobe Illustrator 17.0.0, SVG Export Plug-In . SVG Version: 6.00 Build 0)  -->
<!DOCTYPE svg PUBLIC "-//W3C//DTD SVG 1.1//EN" "http://www.w3.org/Graphics/SVG/1.1/DTD/svg11.dtd">
<svg version="1.1" id="Layer_1" xmlns="http://www.w3.org/2000/svg" xmlns:xlink="http://www.w3.org/1999/xlink" x="0px" y="0px"
	 width="79.333px" height="72.667px" viewBox="0 0 79.333 72.667" enable-background="new 0 0 79.333 72.667" xml:space="preserve">
<g>
	<g>
		<path fill-rule="evenodd" clip-rule="evenodd" fill="#68A7DA" d="M29.969,14.139c-5.783,3.949-8.732,11.253-6.816,18.4
			c2.424,9.048,11.725,14.418,20.773,11.993c7.394-1.981,12.33-8.551,12.567-15.825c-1.023,5.969-5.405,11.097-11.639,12.767
			c-8.54,2.289-17.317-2.779-19.606-11.319C23.641,24.157,25.663,18.041,29.969,14.139L29.969,14.139z"/>
		<path fill-rule="evenodd" clip-rule="evenodd" fill="#436FAF" d="M48.925,37.541c4.879-3.332,7.368-9.494,5.751-15.526
			c-2.046-7.635-9.893-12.166-17.529-10.121c-6.239,1.672-10.405,7.217-10.604,13.354c0.863-5.037,4.561-9.364,9.822-10.773
			c7.206-1.931,14.613,2.345,16.544,9.551C54.265,29.088,52.558,34.248,48.925,37.541L48.925,37.541z"/>
		<g>
			<path fill-rule="evenodd" clip-rule="evenodd" fill="#68A7DA" d="M27.87,18.453c3.825,1.086,9.141,4.753,10.373,8.568
				c2.496-2.474,6.726-4.613,11.151-4.284c-8.46,4.144-8.266,13.966-2.723,20.724c-7.079-3.974-9.433-4.522-13.469-14.392
				C30.042,19.831,29.31,18.955,27.87,18.453z"/>
			<circle fill="#68A7DA" cx="39.799" cy="19.747" r="3.534"/>
		</g>
	</g>
	<g>
		<path fill="#436FAF" d="M26.665,47.644c0.407-0.013,0.814-0.045,1.221-0.035c0.775,0.02,1.247,0.467,1.289,1.254
			c0.035,0.655,0.016,1.312,0.017,1.968c0.001,3.199-0.01,6.399,0.013,9.598c0.004,0.526-0.114,0.741-0.673,0.7
			c-0.67-0.048-1.345-0.022-2.018-0.01c-0.386,0.007-0.544-0.139-0.536-0.544c0.049-2.275-0.066-4.551,0.063-6.825
			c0.01-0.183,0.052-0.4-0.147-0.494c-0.252-0.119-0.354,0.113-0.475,0.27c-1.746,2.264-3.494,4.526-5.233,6.795
			c-0.424,0.554-0.916,0.802-1.652,0.833c-1.227,0.052-2.115-0.21-2.891-1.316c-1.533-2.187-3.254-4.241-4.898-6.349
			c-0.133-0.171-0.223-0.465-0.489-0.389c-0.32,0.091-0.191,0.413-0.191,0.638c-0.006,2.235-0.022,4.471,0.016,6.706
			c0.009,0.568-0.192,0.705-0.698,0.68c-0.63-0.03-1.265-0.029-1.896,0.002c-0.412,0.021-0.56-0.084-0.558-0.534
			c0.018-3.958,0.009-7.917,0.012-11.874c0-0.629,0.383-1.048,1.016-1.099c0.508-0.041,1.018-0.047,1.526,0.03
			c0.378,0.422,0.812,0.784,1.178,1.227c0.545,0.662,1.054,1.35,1.594,2.014c1.802,2.213,3.618,4.414,5.421,6.626
			c0.359,0.44,0.6,0.47,0.944,0.037c1.244-1.564,2.462-3.149,3.726-4.696C23.773,51.112,25.051,49.237,26.665,47.644"/>
		<path fill="#436FAF" d="M47.188,54.131c-0.001,1.866,0.002,3.731-0.002,5.597c-0.002,1.236-0.169,1.326-1.357,1.419
			c-1.133,0.088-1.943-0.33-2.767-1.077c-2.597-2.355-5.266-4.629-7.906-6.937c-0.261-0.229-0.508-0.474-0.763-0.71
			c-0.12-0.11-0.242-0.251-0.423-0.19c-0.229,0.078-0.18,0.295-0.181,0.472c-0.001,1.743,0.002,3.485,0.003,5.228
			c0,0.902-0.013,1.805,0.007,2.706c0.007,0.348-0.12,0.48-0.456,0.477c-0.713-0.008-1.428-0.021-2.14,0.011
			c-0.467,0.021-0.63-0.119-0.627-0.619c0.023-3.157,0.01-6.315,0.014-9.472c0.001-0.778-0.011-1.559,0.049-2.334
			c0.061-0.79,0.417-1.018,1.185-1.113c1.071-0.133,1.86,0.312,2.625,0.991c2.975,2.64,5.973,5.254,8.963,7.877
			c0.15,0.131,0.281,0.344,0.514,0.25c0.248-0.1,0.159-0.351,0.159-0.543c0.003-2.604,0.015-5.208-0.016-7.811
			c-0.007-0.569,0.163-0.78,0.726-0.745c0.569,0.035,1.144,0.041,1.711-0.002c0.535-0.041,0.705,0.132,0.696,0.684
			C47.169,50.235,47.188,52.183,47.188,54.131"/>
		<path fill="#436FAF" d="M63.589,61.099c-3.622,0-7.245,0-10.867-0.001c-0.323,0.001-1.463-0.275-1.994-0.459
			c-0.915-0.317-1.868-1.952-1.839-2.871c0.07-2.212,0.025-4.428,0.021-6.642c-0.001-0.669,0.261-1.237,0.687-1.717
			c1.048-1.179,2.455-1.513,3.944-1.591c0.793-0.041,1.59-0.008,2.385-0.008c1.582,0,1.561,0,1.574,1.564
			c0.004,0.487-0.176,0.587-0.609,0.574c-0.917-0.026-1.835-0.027-2.752-0.002c-1.983,0.052-2.643,0.672-2.634,2.432
			c0.004,0.901,0.195,1.091,1.139,1.092c3.221,0.003,6.442,0.001,9.663,0.001c1.302,0,1.302,0,1.305,1.333
			c0.002,0.91,0.002,0.91-0.907,0.91c-3.425,0-6.85,0.004-10.274-0.006c-0.406-0.001-0.753,0.064-0.861,0.503
			c-0.118,0.48-0.149,0.987,0.01,1.453c0.161,0.473,0.475,0.891,1.005,0.978c0.819,0.136,1.635,0.273,2.479,0.263
			c2.629-0.032,5.26-0.002,7.889-0.022c0.511-0.004,0.701,0.172,0.667,0.679C63.582,60.073,63.596,60.587,63.589,61.099"/>
		<path fill="#436FAF" d="M67.07,47.614c2.446,0,4.892,0.012,7.338-0.011c0.456-0.004,0.62,0.117,0.583,0.582
			c-0.037,0.468-0.029,0.943-0.002,1.413c0.026,0.458-0.102,0.648-0.61,0.635c-1.426-0.036-2.853-0.011-4.28-0.014
			c-0.833-0.002-0.835-0.003-0.834,0.867c0.001,3.095-0.014,6.191,0.015,9.286c0.006,0.6-0.173,0.803-0.76,0.755
			c-0.547-0.044-1.102-0.04-1.65-0.001c-0.581,0.042-0.805-0.102-0.796-0.765c0.042-3.074,0.02-6.149,0.021-9.224
			c0-0.924,0-0.92-0.924-0.918c-1.773,0.004-3.546,0.004-5.319,0.001c-0.84-0.001-0.99-0.181-0.901-1.038
			c0.017-0.162,0.031-0.327,0.018-0.489c-0.084-1.08-0.086-1.08,1.008-1.08C62.342,47.614,64.706,47.614,67.07,47.614"/>
		<path fill="#436FAF" d="M52.653,60.092c-0.679-0.388-1.392-0.712-2.077-1.091c-0.686-0.379-1.292-0.827-1.666-1.456
			c-0.014,0.093-0.022,0.189-0.022,0.286v1.317c0,1.077,0.876,1.958,1.946,1.958h1.898c0.457,0,0.878-0.162,1.21-0.43
			C53.493,60.555,53.099,60.347,52.653,60.092"/>
	</g>
</g>
</svg>
