<?xml version="1.0" encoding="utf-8"?>
<!-- Generator: Adobe Illustrator 17.0.0, SVG Export Plug-In . SVG Version: 6.00 Build 0)  -->
<!DOCTYPE svg PUBLIC "-//W3C//DTD SVG 1.1//EN" "http://www.w3.org/Graphics/SVG/1.1/DTD/svg11.dtd">
<svg version="1.1" id="Layer_1" xmlns="http://www.w3.org/2000/svg" xmlns:xlink="http://www.w3.org/1999/xlink" x="0px" y="0px"
	 width="55px" height="51px" viewBox="0 0 55 51" enable-background="new 0 0 55 51" xml:space="preserve">
<g>
	<g>
		<g>
			<path fill="#436FAF" d="M32.801,31.598l-7.674-1.805v-5.288c0.065-0.051,0.133-0.097,0.197-0.15
				c2.548-2.125,4.095-5.217,4.268-8.53h0.036c0.414,0,0.75-0.336,0.75-0.75v-0.75c0-5.8-4.702-10.502-10.502-10.502
				S9.374,8.524,9.374,14.324v1.5c0,0.414,0.336,0.75,0.75,0.75c0.031-0.003,0.061-0.008,0.092-0.014
				c0.352,3.042,1.86,5.833,4.212,7.794c0.064,0.053,0.132,0.099,0.197,0.15v5.288l-7.674,1.805
				c-0.339,0.08-0.579,0.382-0.578,0.731v15.754c0,0.414,0.336,0.75,0.75,0.75h25.506c0.414,0,0.75-0.336,0.75-0.75V32.328
				C33.38,31.98,33.14,31.677,32.801,31.598z M14.625,47.332H7.873V32.922l6.752-1.588V47.332z M10.874,14.324
				c0-4.972,4.03-9.002,9.002-9.002s9.002,4.03,9.002,9.002h-2.251c-2.07-0.002-3.748-1.68-3.751-3.751
				c0-0.414-0.335-0.75-0.75-0.751c-0.055,0-0.11,0.006-0.163,0.018l-0.45,0.101c-3.786,0.837-7.39,2.349-10.64,4.464V14.324z
				 M23.627,47.332h-7.502V33.619l2.659-0.886l-1.882,6.902c-0.049,0.178-0.03,0.368,0.053,0.533l2.251,4.501
				c0.185,0.371,0.636,0.521,1.006,0.336c0.145-0.073,0.263-0.19,0.336-0.336l2.251-4.501c0.082-0.165,0.101-0.355,0.053-0.533
				l-1.882-6.902l2.659,0.886V47.332z M16.125,32.037v-1.496l1.795,0.9L16.125,32.037z M19.876,34.429l1.452,5.322l-1.452,2.902
				l-1.452-2.902L19.876,34.429z M23.627,32.037l-1.795-0.6l1.795-0.896V32.037z M23.627,28.863l-3.751,1.875l-3.751-1.875v-3.414
				c1.167,0.576,2.45,0.876,3.751,0.878c1.301-0.002,2.584-0.303,3.751-0.878V28.863z M15.389,23.202
				c-2.24-1.872-3.593-4.597-3.731-7.512c2.997-1.958,6.313-3.378,9.799-4.196c0.449,2.504,2.626,4.328,5.17,4.332h1.464
				c-0.172,2.868-1.521,5.538-3.728,7.377C21.765,25.369,17.988,25.369,15.389,23.202z M31.879,47.332h-6.752V31.334l6.752,1.588
				V47.332z"/>
		</g>
	</g>
	<g>
		<g>
			<path fill="#436FAF" d="M25.878,15.825h-4.501c-0.414,0-0.75,0.336-0.75,0.75v0.75h-1.5v-0.75c0-0.414-0.336-0.75-0.75-0.75
				h-4.501c-0.414,0-0.75,0.336-0.75,0.75v3.001c0,0.414,0.336,0.75,0.75,0.75h4.501c0.414,0,0.75-0.336,0.75-0.75v-0.75h1.5v0.75
				c0,0.414,0.336,0.75,0.75,0.75h4.501c0.414,0,0.75-0.336,0.75-0.75v-3.001C26.628,16.16,26.292,15.825,25.878,15.825z
				 M17.626,18.825h-3.001v-1.5h3.001V18.825z M25.127,18.825h-3.001v-1.5h3.001V18.825z"/>
		</g>
	</g>
	<g>
		<g>
			<path fill="#436FAF" d="M50.378,22.525c-0.091-0.129-0.204-0.241-0.333-0.333v-0.002l-1.563-1.103l0.801-1.737
				c0.322-0.696,0.019-1.521-0.677-1.843c-0.145-0.067-0.3-0.109-0.459-0.123l-1.904-0.171l-0.172-1.905
				c-0.071-0.764-0.748-1.326-1.512-1.255c-0.156,0.015-0.309,0.056-0.452,0.121l-1.736,0.802l-1.104-1.564
				c-0.443-0.627-1.311-0.776-1.938-0.333c-0.129,0.091-0.241,0.204-0.333,0.333l-1.103,1.563l-1.74-0.801
				c-0.696-0.322-1.521-0.019-1.843,0.677c-0.067,0.145-0.109,0.3-0.123,0.459l-0.171,1.904l-1.905,0.172
				c-0.764,0.071-1.326,0.748-1.255,1.512c0.015,0.156,0.056,0.309,0.121,0.452l0.802,1.736l-1.563,1.103
				c-0.627,0.443-0.776,1.311-0.333,1.938c0.091,0.129,0.204,0.241,0.333,0.333l1.563,1.103l-0.802,1.74
				c-0.322,0.696-0.019,1.521,0.677,1.843c0.145,0.067,0.3,0.109,0.459,0.123l1.904,0.171l0.172,1.905
				c0.041,0.449,0.298,0.851,0.689,1.076v8.909c0,0.414,0.336,0.75,0.75,0.75c0.199,0,0.39-0.079,0.53-0.22l3.971-3.971l3.971,3.971
				c0.293,0.293,0.768,0.293,1.061,0c0.141-0.141,0.22-0.331,0.22-0.53v-8.909c0.391-0.226,0.648-0.628,0.689-1.078l0.171-1.904
				l1.905-0.172c0.764-0.069,1.327-0.745,1.258-1.509c-0.014-0.158-0.056-0.312-0.122-0.456l-0.802-1.736l1.564-1.104
				C50.672,24.02,50.821,23.152,50.378,22.525z M43.882,39.52l-3.22-3.22c-0.293-0.293-0.768-0.293-1.061,0l-3.22,3.22v-7.143
				l1.513-0.699l1.104,1.564c0.443,0.627,1.311,0.776,1.938,0.333c0.129-0.091,0.241-0.204,0.333-0.333l1.103-1.563l1.512,0.698
				L43.882,39.52L43.882,39.52z M47.541,24.392c-0.549,0.386-0.743,1.11-0.46,1.719l0.776,1.677l-1.839,0.166
				c-0.67,0.059-1.201,0.589-1.261,1.259l-0.167,1.842l-1.675-0.775c-0.609-0.282-1.332-0.089-1.719,0.459l-1.066,1.51l-1.065-1.511
				c-0.386-0.549-1.11-0.743-1.719-0.46l-1.677,0.776l-0.166-1.839c-0.059-0.67-0.589-1.201-1.259-1.261l-1.842-0.167l0.775-1.675
				c0.283-0.608,0.09-1.332-0.459-1.719l-1.51-1.066l1.511-1.065c0.549-0.386,0.743-1.11,0.46-1.719l-0.776-1.677l1.839-0.166
				c0.67-0.059,1.201-0.589,1.261-1.259l0.166-1.84l1.675,0.775c0.608,0.283,1.333,0.09,1.719-0.459l1.067-1.512l1.065,1.511
				c0.386,0.549,1.11,0.743,1.719,0.46l1.677-0.776l0.166,1.839c0.059,0.67,0.589,1.201,1.259,1.261l1.84,0.166l-0.775,1.675
				c-0.283,0.608-0.09,1.332,0.459,1.719l1.512,1.067L47.541,24.392z"/>
		</g>
	</g>
	<g>
		<g>
			<path fill="#436FAF" d="M40.131,16.575c-3.729,0-6.752,3.023-6.752,6.752c0,3.729,3.023,6.752,6.752,6.752
				c3.729,0,6.752-3.023,6.752-6.752C46.878,19.599,43.858,16.579,40.131,16.575z M40.131,28.577c-2.9,0-5.251-2.351-5.251-5.251
				s2.351-5.251,5.251-5.251c2.9,0,5.251,2.351,5.251,5.251C45.379,26.225,43.03,28.574,40.131,28.577z"/>
		</g>
	</g>
	<g>
		<g>
			<rect x="44.632" y="9.073" fill="#436FAF" width="1.5" height="1.5"/>
		</g>
	</g>
	<g>
		<g>
			<rect x="47.633" y="9.073" fill="#436FAF" width="1.5" height="1.5"/>
		</g>
	</g>
	<g>
		<g>
			<rect x="46.132" y="7.573" fill="#436FAF" width="1.5" height="1.5"/>
		</g>
	</g>
	<g>
		<g>
			<rect x="46.132" y="10.573" fill="#436FAF" width="1.5" height="1.5"/>
		</g>
	</g>
	<g>
		<g>
			<rect x="36.38" y="5.322" fill="#436FAF" width="1.5" height="1.5"/>
		</g>
	</g>
	<g>
		<g>
			<rect x="39.381" y="5.322" fill="#436FAF" width="1.5" height="1.5"/>
		</g>
	</g>
	<g>
		<g>
			<rect x="37.88" y="3.822" fill="#436FAF" width="1.5" height="1.5"/>
		</g>
	</g>
	<g>
		<g>
			<rect x="37.88" y="6.822" fill="#436FAF" width="1.5" height="1.5"/>
		</g>
	</g>
</g>
</svg>
