<?xml version="1.0" encoding="utf-8"?>
<!-- Generator: Adobe Illustrator 17.0.0, SVG Export Plug-In . SVG Version: 6.00 Build 0)  -->
<!DOCTYPE svg PUBLIC "-//W3C//DTD SVG 1.1//EN" "http://www.w3.org/Graphics/SVG/1.1/DTD/svg11.dtd">
<svg version="1.1" id="Layer_1" xmlns="http://www.w3.org/2000/svg" xmlns:xlink="http://www.w3.org/1999/xlink" x="0px" y="0px"
	 width="100px" height="100px" viewBox="0 0 100 100" enable-background="new 0 0 100 100" xml:space="preserve">
<g>
	<path fill="#B6D881" d="M32.786,27.915v2.894H6.742V7.659h26.043v4.341V27.915z"/>
	<path fill="#B27A47" d="M76.192,85.789h8.681h2.894l1.447,8.681H71.851l1.447-8.681H76.192z"/>
	<path fill="#D3A16D" d="M61.723,30.808v7.234c0,2.402-1.939,4.341-4.341,4.341c-1.201,0-2.286-0.492-3.067-1.273
		c-0.781-0.781-1.273-1.866-1.273-3.067v-7.234h7.234c0.477,0,0.94-0.072,1.36-0.231L61.723,30.808z"/>
	<path fill="#D3A16D" d="M64.617,23.574l-0.998,0.13c-0.087-0.101-0.174-0.203-0.275-0.304c-0.781-0.781-1.866-1.273-3.067-1.273
		h-7.234l4.095-4.095c1.085-1.085,2.561-1.693,4.095-1.693h15.452c0.868,0,1.722,0.203,2.489,0.564l-0.087,0.174
		c3.53,2.923,5.787,7.336,5.787,12.284v56.428h-8.681V29.362c0-3.993-3.241-7.234-7.234-7.234
		C67.322,22.127,65.832,22.663,64.617,23.574L64.617,23.574z"/>
	<path fill="#F0D0B5" d="M53.042,22.127h7.234c1.201,0,2.286,0.492,3.067,1.273c0.101,0.101,0.188,0.203,0.275,0.304
		c0.622,0.752,0.998,1.707,0.998,2.764c0,1.924-1.244,3.545-2.981,4.109c-0.42,0.159-0.883,0.231-1.36,0.231h-7.234h-3.458
		c-3.415,0-6.728-1.013-9.564-2.894h-7.234V11.999l4.485-2.691c1.794-1.085,3.863-1.649,5.961-1.649h32.757
		c3.834,0,7.509,1.519,10.229,4.239l6.178,6.178c0.738,0.738,1.157,1.751,1.157,2.792v0.188c0,2.185-1.78,3.964-3.964,3.964h-0.188
		c-1.042,0-2.055-0.42-2.792-1.157l-5.831-5.831c-0.463-0.463-1.013-0.854-1.606-1.129c-0.767-0.362-1.62-0.564-2.489-0.564H61.231
		c-1.534,0-3.009,0.608-4.095,1.693L53.042,22.127z"/>
	<path fill="#AAB2BD" d="M53.042,48.171v16.653c0,14.02-9.549,26.246-23.15,29.646c-13.6-3.4-23.15-15.626-23.15-29.646V48.171
		c3.762,0,7.466-0.608,10.982-1.78s6.844-2.908,9.853-5.165l2.315-1.736l2.315,1.736C38.212,45.74,45.533,48.171,53.042,48.171
		L53.042,48.171z"/>
	<circle fill="#FCD770" cx="29.892" cy="66.98" r="17.362"/>
	<path fill="#010101" d="M28.445,53.958v3.099c-2.49,0.647-4.341,2.892-4.341,5.582c0,3.192,2.596,5.787,5.787,5.787
		c1.596,0,2.894,1.298,2.894,2.894s-1.298,2.894-2.894,2.894s-2.894-1.298-2.894-2.894h-2.894c0,2.69,1.851,4.935,4.341,5.582v3.099
		h2.894v-3.099c2.49-0.647,4.341-2.892,4.341-5.582c0-3.192-2.596-5.787-5.787-5.787c-1.596,0-2.894-1.298-2.894-2.894
		c0-1.596,1.298-2.894,2.894-2.894s2.894,1.298,2.894,2.894h2.894c0-2.69-1.851-4.935-4.341-5.582v-3.099H28.445z"/>
	<path fill="#010101" d="M33.075,40.068l-3.183-2.387l-3.182,2.387c-5.724,4.291-12.816,6.656-19.968,6.656H5.296v18.097
		c0,14.715,9.97,27.485,24.246,31.053l0.35,0.088l0.35-0.09c14.276-3.567,24.246-16.337,24.246-31.051V46.724h-1.447
		C45.89,46.724,38.798,44.36,33.075,40.068L33.075,40.068z M51.595,64.821c0,13.263-8.905,24.791-21.703,28.156
		C17.095,89.612,8.189,78.085,8.189,64.821V49.587c7.279-0.297,14.422-2.829,20.257-7.204l1.445-1.085l1.447,1.085
		c5.834,4.375,12.977,6.907,20.256,7.204V64.821z"/>
	<path fill="#010101" d="M93.415,17.049l-6.177-6.177c-3.004-3.004-7.001-4.66-11.254-4.66H43.226c-2.358,0-4.675,0.641-6.7,1.855
		l-2.293,1.377V6.212H5.296v26.043h28.937v-2.894h5.359c2.992,1.895,6.436,2.894,9.985,2.894h2.018v5.787
		c0,3.192,2.596,5.787,5.787,5.787s5.787-2.596,5.787-5.787v-6.592c1.722-1.004,2.894-2.85,2.894-4.983
		c0-0.664-0.136-1.292-0.343-1.887c0.958-0.651,2.066-1.007,3.237-1.007c3.192,0,5.787,2.596,5.787,5.787v54.981h-2.672
		l-1.93,11.575h20.778l-1.93-11.575H86.32V29.362c0-1.484-0.208-2.937-0.57-4.342c0.993,0.914,2.308,1.448,3.659,1.448h0.181
		c2.983,0,5.411-2.428,5.411-5.411v-0.181C95.001,19.451,94.424,18.057,93.415,17.049L93.415,17.049z M31.339,29.362H8.189V9.106
		h23.15V29.362z M60.276,38.043c0,1.596-1.298,2.894-2.894,2.894c-1.596,0-2.894-1.298-2.894-2.894v-5.787h5.787V38.043z
		 M86.541,87.236l0.964,5.787H73.558l0.964-5.787h0.223H86.32H86.541z M77.639,84.342V29.362c0-4.788-3.894-8.681-8.681-8.681
		c-1.746,0-3.4,0.531-4.831,1.498c-1.026-0.92-2.366-1.498-3.85-1.498h-3.742l1.622-1.622c0.82-0.82,1.91-1.272,3.07-1.272h15.461
		c0.547,0,1.075,0.109,1.57,0.301l-0.094,0.113c3.345,2.761,5.262,6.829,5.262,11.161v54.981H77.639z M92.107,21.057
		c0,1.389-1.129,2.518-2.518,2.518h-0.181c-0.663,0-1.311-0.269-1.78-0.738l-5.824-5.824c-1.367-1.366-3.185-2.12-5.118-2.12H61.227
		c-1.933,0-3.75,0.754-5.116,2.12l-3.668,3.668h-2.295v2.894h10.128c1.596,0,2.894,1.298,2.894,2.894
		c0,1.596-1.298,2.894-2.894,2.894h-10.7c-3.125,0-6.153-0.917-8.755-2.651l-0.363-0.243h-6.226v-13.65l3.781-2.27
		c1.576-0.943,3.378-1.443,5.213-1.443h32.76c3.478,0,6.748,1.356,9.208,3.814l6.177,6.177c0.469,0.469,0.738,1.117,0.738,1.78
		v0.181H92.107z"/>
	<path fill="#010101" d="M11.083,66.98c0,10.371,8.438,18.809,18.809,18.809s18.809-8.438,18.809-18.809
		s-8.438-18.809-18.809-18.809S11.083,56.609,11.083,66.98z M45.808,66.98c0,8.775-7.14,15.915-15.915,15.915
		s-15.915-7.14-15.915-15.915s7.14-15.915,15.915-15.915S45.808,58.205,45.808,66.98z"/>
	<path fill="#010101" d="M40.02,65.533h2.894v2.894H40.02V65.533z"/>
	<path fill="#010101" d="M16.87,65.533h2.894v2.894H16.87V65.533z"/>
</g>
</svg>
