<?xml version="1.0" encoding="utf-8"?>
<!-- Generator: Adobe Illustrator 17.0.0, SVG Export Plug-In . SVG Version: 6.00 Build 0)  -->
<!DOCTYPE svg PUBLIC "-//W3C//DTD SVG 1.1//EN" "http://www.w3.org/Graphics/SVG/1.1/DTD/svg11.dtd">
<svg version="1.1" id="Layer_1" xmlns="http://www.w3.org/2000/svg" xmlns:xlink="http://www.w3.org/1999/xlink" x="0px" y="0px"
	 width="55px" height="51px" viewBox="0 0 55 51" enable-background="new 0 0 55 51" xml:space="preserve">
<g>
	<g>
		<path fill="#436FAF" d="M47.891,7.104c-5.661-5.693-15.003-5.41-20.393,0.508c-5.39-5.917-14.732-6.201-20.393-0.508
			C1.476,12.71,1.667,21.941,7.467,27.352C4.5,30.186,6.2,35.278,10.239,35.775c-0.242,2.766,2.112,5.302,4.896,5.255
			c0.171,3.044,3.226,5.224,6.156,4.419c0.961,3.627,5.581,4.867,8.232,2.197c1.505-1.496,2.703-2.44,2.779-4.706
			c2.488-0.069,4.64-2.251,4.678-4.737c2.511-0.039,4.699-2.228,4.738-4.738c2.605-0.04,4.864-2.391,4.743-5.046l1.429-1.429
			C53.373,21.507,53.373,12.586,47.891,7.104z M9.623,29.64l1.342-1.342c0.347-0.347,0.803-0.52,1.258-0.52
			c1.563-0.01,2.379,1.922,1.258,3.037l-1.342,1.342C10.401,33.756,8.023,31.378,9.623,29.64L9.623,29.64z M13.366,36.11
			c0-0.475,0.185-0.922,0.521-1.258l1.343-1.343c0.336-0.336,0.783-0.521,1.258-0.521c1.576-0.003,2.375,1.925,1.258,3.038
			l-1.185,1.185c-0.362,0.41-0.859,0.688-1.416,0.679C14.189,37.909,13.346,37.067,13.366,36.11z M18.783,41.949
			c-0.69-0.662-0.69-1.854,0-2.516l1.185-1.185c0.691-0.82,1.903-0.927,2.675-0.158c0.694,0.694,0.694,1.823,0,2.517L21.3,41.949
			C20.606,42.643,19.477,42.643,18.783,41.949L18.783,41.949z M28.644,44.081l-1.342,1.342c-0.336,0.336-0.783,0.521-1.258,0.521
			c-0.475,0-0.922-0.185-1.258-0.521c-0.69-0.662-0.691-1.854,0-2.517l1.342-1.342c0.694-0.694,1.823-0.694,2.517,0
			C29.334,42.227,29.335,43.419,28.644,44.081L28.644,44.081z M42.8,29.807c-0.662,0.69-1.854,0.69-2.517,0l-6.992-6.992
			l-2.222,2.222l6.992,6.992c0.694,0.694,0.694,1.823,0,2.517c-0.694,0.694-1.823,0.694-2.517,0l-6.873-6.873l-0.119-0.119
			l-2.222,2.222l0.119,0.119l6.873,6.873c0.694,0.694,0.694,1.823,0,2.517s-1.823,0.694-2.517,0l-0.001,0.001
			c-1.277-1.234-3.061-1.641-4.672-1.219c-0.513-2.096-2.62-3.683-4.739-3.637c-0.103-2.256-2.01-4.294-4.264-4.538
			c0.297-3.871-3.954-6.537-7.309-4.63c-4.673-4.174-4.96-11.501-0.494-15.936c4.44-4.472,11.777-4.175,15.949,0.508l-3.884,3.884
			l3.112,3.112c2.391,2.391,6.075,2.72,8.822,0.987l9.474,9.474C43.493,27.984,43.493,29.113,42.8,29.807L42.8,29.807z
			 M45.669,24.767l-0.479,0.479c-0.055-0.06-0.111-0.119-0.169-0.177L33.45,13.497l-1.111,1.111c-1.547,1.547-4.065,1.548-5.613,0
			l-0.891-0.891l4.392-4.392C40.895-0.494,55.486,14.106,45.669,24.767L45.669,24.767z"/>
	</g>
</g>
</svg>
